<?xml version="1.0" encoding="UTF-8" standalone="no"?>
<!DOCTYPE svg PUBLIC "-//W3C//DTD SVG 1.1//EN" "http://www.w3.org/Graphics/SVG/1.1/DTD/svg11.dtd">
<svg xmlns="http://www.w3.org/2000/svg" version="1.1" viewBox="0 0 822 303">
<path fill="#ee5c3c" fill-opacity="0.996" d="
  M 134.65 219.28
  L 143.43 220.05
  A 1.23 0.84 -8.6 0 1 144.25 220.45
  Q 145.18 221.80 144.44 223.25
  A 0.73 0.73 -73.3 0 1 143.70 223.65
  L 131.46 222.32
  Q 129.13 222.07 130.05 219.83
  Q 132.12 214.84 129.50 210.17
  Q 125.94 203.83 119.25 204.50
  Q 112.64 205.16 109.93 211.20
  Q 108.90 213.50 106.85 212.03
  Q 98.27 205.91 91.56 197.44
  Q 89.70 195.08 88.98 193.28
  A 0.76 0.73 -32.7 0 1 89.17 192.47
  Q 90.63 191.07 92.16 189.74
  Q 93.92 188.20 94.64 186.67
  Q 97.57 180.45 93.69 175.41
  Q 91.52 172.59 88.53 171.59
  Q 85.46 170.56 81.80 171.35
  Q 79.59 171.82 79.16 169.60
  Q 76.65 156.50 79.38 144.02
  A 1.36 1.36 -76.3 0 1 81.07 142.99
  Q 88.20 144.96 92.70 141.67
  Q 97.25 138.34 97.15 132.48
  Q 97.05 126.44 90.38 122.80
  Q 88.36 121.70 89.68 119.81
  Q 97.54 108.56 108.09 102.01
  A 1.54 1.54 -31.2 0 1 110.22 102.53
  Q 113.17 107.47 117.67 108.77
  Q 122.24 110.08 126.39 107.45
  Q 132.22 103.75 131.09 94.45
  A 1.83 1.82 -12.0 0 1 132.37 92.49
  Q 136.89 91.11 143.67 91.27
  A 0.75 0.75 85.1 0 1 144.38 91.87
  Q 144.95 94.79 142.75 94.78
  Q 139.11 94.77 135.30 95.28
  A 0.96 0.96 81.6 0 0 134.48 96.39
  Q 135.34 101.51 133.14 105.49
  Q 131.17 109.04 126.68 111.19
  Q 116.64 116.00 108.81 106.39
  A 0.53 0.53 -36.9 0 0 108.09 106.29
  Q 100.26 111.83 93.96 120.06
  A 0.71 0.70 -51.1 0 0 94.06 121.02
  Q 103.63 129.27 99.32 138.72
  Q 97.22 143.32 93.21 145.41
  Q 88.98 147.63 83.67 146.81
  A 1.32 1.32 -80.7 0 0 82.17 147.89
  Q 80.75 156.25 82.19 166.93
  A 0.89 0.89 36.6 0 0 83.19 167.69
  Q 87.62 167.12 91.39 169.05
  Q 94.80 170.78 97.11 174.50
  Q 102.85 183.73 93.88 193.01
  A 1.08 1.08 48.8 0 0 93.79 194.41
  Q 99.35 201.90 107.34 207.83
  A 0.60 0.59 -53.4 0 0 108.18 207.70
  Q 113.97 199.78 122.23 201.29
  Q 128.25 202.40 131.46 206.78
  Q 134.78 211.33 133.90 218.29
  A 0.88 0.84 -83.6 0 0 134.65 219.28
  Z"
/>
<path fill="#f79744" d="
  M 208.93 132.78
  Q 214.56 138.15 215.40 146.01
  Q 216.66 157.66 207.91 165.45
  A 1.20 1.20 59.9 0 0 207.57 166.74
  Q 209.84 173.25 207.64 179.21
  Q 204.95 186.50 197.00 188.90
  A 0.54 0.53 74.2 0 0 196.64 189.55
  Q 199.80 202.04 191.91 209.55
  Q 188.22 213.07 183.72 213.93
  Q 178.71 214.90 174.01 212.51
  A 0.80 0.79 -69.2 0 0 172.88 213.02
  Q 170.63 221.49 163.39 222.96
  Q 159.12 223.83 155.33 221.86
  Q 151.25 219.73 149.60 215.30
  Q 148.75 213.03 148.75 208.58
  Q 148.75 205.16 148.76 201.75
  Q 148.76 196.68 151.98 191.57
  A 0.90 0.89 -44.7 0 0 151.99 190.61
  Q 150.50 188.24 149.59 185.97
  Q 148.76 183.91 148.67 180.89
  Q 148.23 165.17 148.66 149.44
  Q 148.76 145.97 149.67 143.70
  Q 150.76 140.99 152.55 138.53
  A 1.14 1.14 -47.0 0 0 152.50 137.11
  Q 149.42 133.52 148.68 129.06
  Q 148.50 127.96 148.50 120.43
  Q 148.50 112.84 148.50 105.25
  Q 148.50 99.78 151.25 96.15
  Q 154.02 92.50 158.82 91.54
  Q 165.44 90.21 170.25 96.29
  A 0.80 0.78 63.0 0 0 171.05 96.56
  Q 185.35 92.88 190.08 107.26
  A 0.91 0.91 -18.7 0 0 191.24 107.83
  Q 193.94 106.91 196.92 107.24
  Q 199.58 107.54 202.22 109.02
  Q 211.00 113.91 210.75 125.00
  Q 210.71 127.01 208.75 131.97
  A 0.76 0.74 33.0 0 0 208.93 132.78
  Z
  M 163.45 148.75
  Q 162.16 146.55 161.99 143.80
  A 1.83 1.50 -84.6 0 0 160.95 142.25
  L 156.32 140.63
  A 0.96 0.70 -54.0 0 0 155.46 140.91
  Q 152.27 144.17 152.00 148.25
  Q 151.69 152.92 151.98 174.79
  Q 151.98 174.84 151.88 178.21
  Q 151.72 183.46 154.34 187.90
  A 0.90 0.89 -30.4 0 0 155.57 188.21
  Q 164.32 183.00 172.63 189.03
  A 1.34 1.34 -56.3 0 0 174.56 188.64
  Q 179.53 180.55 174.04 172.86
  A 1.09 1.09 46.9 0 0 172.31 172.80
  Q 169.05 176.72 164.28 177.87
  Q 162.29 178.35 161.31 176.69
  Q 160.06 174.56 162.56 174.31
  Q 166.97 173.88 169.62 170.39
  Q 173.17 165.72 172.01 160.07
  Q 171.69 158.53 171.80 157.90
  Q 172.12 155.98 174.23 156.85
  A 1.16 1.10 -89.4 0 1 174.86 157.53
  Q 176.71 162.76 174.92 168.03
  A 0.85 0.82 -56.9 0 0 175.08 168.86
  Q 178.58 172.74 180.51 177.60
  A 0.76 0.73 -9.9 0 0 181.19 178.06
  Q 185.73 178.14 189.44 180.49
  Q 190.53 181.18 192.22 182.87
  Q 193.52 184.18 194.88 185.42
  A 0.89 0.86 57.6 0 0 195.72 185.62
  Q 204.72 183.10 205.38 173.51
  Q 205.57 170.80 204.45 168.70
  A 0.91 0.90 64.5 0 0 203.30 168.29
  Q 197.90 170.55 192.11 169.50
  A 1.24 1.23 14.8 0 0 190.73 170.30
  Q 189.80 172.89 187.21 174.06
  A 1.17 1.13 -44.6 0 1 186.28 174.07
  Q 183.87 173.05 186.05 171.06
  Q 189.92 167.51 186.97 162.05
  A 1.78 1.77 -29.4 0 1 187.64 159.67
  Q 189.00 158.89 190.22 160.57
  Q 191.64 162.54 191.72 164.41
  A 1.86 1.86 2.4 0 0 193.34 166.17
  Q 196.36 166.56 198.83 166.15
  Q 201.22 165.75 203.77 164.06
  Q 211.33 159.05 211.98 150.33
  Q 212.44 144.26 209.82 139.51
  Q 206.96 134.35 200.93 131.92
  Q 197.70 130.61 194.79 132.56
  Q 192.41 134.15 190.28 136.98
  A 0.92 0.92 42.6 0 0 190.33 138.14
  Q 193.69 141.86 193.85 146.00
  Q 193.94 148.15 192.55 148.01
  Q 190.83 147.84 190.45 146.15
  Q 188.76 138.52 182.13 139.36
  Q 180.95 139.51 180.38 139.30
  Q 179.08 138.84 179.39 137.56
  Q 179.64 136.54 180.75 136.03
  Q 182.69 135.15 185.06 135.75
  A 2.17 2.17 -64.5 0 0 187.34 134.94
  Q 189.43 132.14 191.92 130.33
  Q 194.80 128.24 197.82 128.00
  Q 201.26 127.72 204.49 129.59
  A 1.03 1.02 24.8 0 0 205.97 129.05
  Q 208.55 121.69 204.82 115.93
  Q 200.38 109.08 191.92 111.00
  A 2.18 2.18 -2.3 0 0 190.24 112.82
  Q 188.93 121.96 180.60 125.20
  A 1.03 1.03 76.1 0 0 179.95 126.28
  Q 180.41 130.37 178.50 133.39
  Q 177.93 134.29 177.06 134.60
  Q 175.42 135.19 175.09 133.61
  Q 174.91 132.79 175.49 131.49
  Q 178.80 124.08 171.98 119.70
  A 1.06 0.93 17.3 0 1 171.51 118.94
  Q 171.35 116.43 174.25 117.25
  Q 175.61 117.64 178.92 121.37
  A 0.71 0.68 57.2 0 0 179.71 121.56
  Q 187.49 118.30 187.00 110.25
  Q 186.35 99.59 175.72 99.03
  Q 174.12 98.95 173.34 99.35
  Q 171.80 100.15 172.94 102.31
  Q 174.54 105.34 171.94 105.94
  Q 170.53 106.26 169.88 105.35
  Q 169.57 104.92 169.45 103.56
  Q 169.15 100.10 167.02 97.66
  Q 165.08 95.45 162.34 94.82
  Q 159.28 94.11 156.56 95.81
  Q 151.87 98.75 151.77 105.00
  Q 151.66 112.08 151.79 119.16
  Q 151.96 128.17 152.66 130.38
  Q 154.60 136.55 161.76 138.62
  A 0.65 0.65 -67.3 0 0 162.49 138.32
  Q 164.60 134.65 168.31 132.72
  A 1.22 1.15 -48.3 0 1 169.22 132.64
  Q 172.12 133.62 169.60 135.61
  Q 163.08 140.77 167.00 148.06
  A 1.18 0.90 46.4 0 1 167.10 148.97
  Q 166.53 150.37 165.12 150.08
  Q 164.10 149.87 163.45 148.75
  Z
  M 177.12 203.37
  Q 175.10 203.54 175.00 201.52
  Q 174.65 194.20 169.17 190.92
  Q 166.07 189.07 162.52 189.37
  Q 158.58 189.69 155.94 192.40
  Q 153.32 195.09 152.50 199.86
  Q 151.89 203.45 152.00 208.25
  Q 152.10 212.70 153.87 215.74
  Q 155.75 218.97 159.23 219.85
  Q 163.15 220.84 166.50 217.75
  Q 172.35 212.34 167.38 206.32
  A 1.40 1.01 34.1 0 1 167.06 205.45
  Q 167.15 204.13 168.26 204.00
  Q 169.02 203.91 169.90 204.67
  Q 171.28 205.88 172.60 207.14
  Q 177.01 211.35 182.20 210.64
  Q 186.70 210.03 190.34 206.18
  Q 194.86 201.42 194.06 194.73
  Q 193.42 189.42 190.48 185.93
  Q 187.12 181.95 181.28 181.52
  A 0.74 0.74 5.3 0 0 180.49 182.17
  Q 179.87 187.96 176.34 191.88
  A 0.83 0.79 -36.0 0 0 176.19 192.71
  Q 177.64 196.27 178.48 200.00
  Q 179.20 203.20 177.12 203.37
  Z"
/>
<rect fill="#f99e3f" x="-8.07" y="-37.17" transform="translate(617.49,146.18) rotate(0.1)" width="16.14" height="74.34" rx="0.86"/>
<path fill="#f9953e" d="
  M 584.30 131.95
  L 598.05 132.25
  A 0.72 0.71 0.8 0 1 598.75 132.96
  L 598.75 146.19
  A 0.56 0.56 89.8 0 1 598.19 146.75
  L 584.42 146.75
  A 0.67 0.67 90.0 0 0 583.75 147.42
  Q 583.75 150.75 583.63 154.00
  Q 583.04 170.42 600.72 168.89
  A 0.96 0.95 -2.2 0 1 601.75 169.84
  L 601.75 182.52
  A 1.02 1.01 -4.3 0 1 600.88 183.52
  Q 589.07 185.19 579.06 178.69
  Q 572.35 174.33 569.63 167.03
  Q 568.02 162.72 567.86 152.75
  Q 567.58 135.53 567.80 118.31
  A 0.52 0.51 -88.9 0 1 568.32 117.80
  L 583.07 117.92
  A 0.53 0.51 89.4 0 1 583.58 118.44
  L 583.82 131.45
  A 0.50 0.49 -89.4 0 0 584.30 131.95
  Z"
/>
<path fill="#f04637" d="
  M 264.29 161.81
  L 264.30 182.00
  A 1.26 1.19 90.0 0 1 263.11 183.26
  L 249.07 183.23
  A 0.84 0.82 90.0 0 1 248.25 182.39
  L 248.25 119.59
  A 1.09 1.09 45.0 0 1 249.34 118.50
  Q 262.88 118.50 276.25 118.41
  Q 281.37 118.38 286.24 119.91
  Q 293.53 122.20 297.57 127.86
  Q 301.41 133.24 301.50 139.77
  Q 301.60 146.59 297.06 152.31
  Q 293.21 157.17 287.56 159.33
  Q 284.07 160.67 276.25 160.89
  Q 270.53 161.05 264.81 161.29
  A 0.54 0.52 -1.1 0 0 264.29 161.81
  Z
  M 264.20 145.40
  A 0.81 0.80 -88.9 0 0 264.97 146.21
  Q 272.29 146.42 278.45 146.29
  Q 280.64 146.25 281.95 145.63
  Q 283.82 144.74 284.69 143.19
  Q 287.73 137.73 282.44 134.06
  Q 280.50 132.72 276.90 132.83
  Q 272.76 132.95 272.59 132.95
  Q 268.71 132.91 264.97 133.23
  A 0.80 0.80 87.7 0 0 264.24 134.03
  L 264.20 145.40
  Z"
/>
<path fill="#ee6f3e" fill-opacity="0.996" d="
  M 143.22 182.18
  A 1.42 1.41 1.3 0 1 144.46 183.47
  Q 144.65 185.94 142.70 185.54
  Q 142.04 185.41 141.91 185.39
  Q 131.96 184.07 125.28 177.79
  Q 118.81 171.71 116.91 162.66
  Q 114.89 153.00 119.66 144.26
  Q 123.29 137.64 129.10 133.88
  Q 135.10 130.01 142.93 129.40
  A 1.36 1.34 -9.0 0 1 144.35 130.42
  Q 144.95 132.81 143.10 132.80
  Q 141.97 132.80 141.90 132.81
  Q 134.55 133.61 128.90 138.39
  Q 120.89 145.16 119.96 154.56
  Q 119.08 163.47 124.16 171.16
  Q 130.39 180.58 143.22 182.18
  Z"
/>
<path fill="#f15438" d="
  M 324.67 183.04
  L 309.86 183.23
  A 0.88 0.85 89.7 0 1 309.00 182.35
  Q 309.00 170.00 308.86 158.00
  Q 308.70 144.87 317.46 137.10
  Q 322.37 132.75 328.93 130.96
  Q 335.36 129.21 342.26 130.25
  A 0.58 0.56 4.8 0 1 342.75 130.81
  L 342.74 144.99
  A 0.69 0.68 4.7 0 1 341.94 145.66
  Q 338.37 145.06 335.25 145.38
  Q 331.50 145.77 329.12 147.61
  Q 325.25 150.60 325.00 156.75
  Q 324.48 169.84 324.93 182.75
  A 0.28 0.27 87.9 0 1 324.67 183.04
  Z"
/>
<path fill="#f5753b" d="
  M 411.19 144.94
  Q 411.04 144.63 411.31 144.06
  Q 417.19 131.56 432.00 130.00
  Q 444.39 128.70 451.43 139.17
  A 0.62 0.62 -46.5 0 0 452.47 139.14
  Q 456.58 132.29 464.44 130.44
  Q 471.04 128.88 477.72 130.98
  Q 484.29 133.03 488.64 137.75
  Q 494.25 143.83 494.50 152.50
  Q 494.91 167.00 494.74 182.38
  A 0.88 0.88 -89.7 0 1 493.86 183.25
  L 479.66 183.25
  A 0.91 0.91 -0.4 0 1 478.75 182.34
  Q 478.75 169.50 478.69 157.00
  Q 478.68 154.74 478.35 152.51
  Q 477.97 149.99 476.89 148.33
  Q 473.53 143.16 466.45 145.00
  Q 461.60 146.26 460.50 151.00
  Q 459.75 154.23 459.82 158.25
  Q 460.00 170.25 460.00 182.26
  A 0.99 0.99 -45.0 0 1 459.01 183.25
  L 444.91 183.25
  A 0.67 0.66 89.6 0 1 444.25 182.59
  Q 444.11 169.25 444.21 155.75
  Q 444.30 143.85 432.75 144.75
  Q 427.95 145.12 426.06 149.81
  Q 425.01 152.43 425.15 159.50
  Q 425.39 171.03 425.08 182.56
  A 0.55 0.52 -89.4 0 1 424.57 183.09
  L 410.31 183.22
  A 1.08 1.05 89.7 0 1 409.25 182.14
  Q 409.25 168.50 409.25 156.00
  Q 409.25 149.56 411.19 144.94
  Z"
/>
<path fill="#f3613a" d="
  M 351.99 138.73
  Q 359.57 130.35 372.00 130.00
  Q 381.22 129.74 387.96 133.33
  Q 399.28 139.37 401.06 152.19
  Q 402.42 161.99 398.53 169.55
  Q 394.84 176.73 386.50 180.88
  Q 373.47 187.37 359.19 180.56
  Q 347.86 175.16 345.52 161.59
  Q 343.24 148.41 351.99 138.73
  Z
  M 385.6153 155.4775
  A 10.95 10.95 0.0 0 0 374.6272 144.5658
  L 372.1872 144.5743
  A 10.95 10.95 0.0 0 0 361.2755 155.5625
  L 361.2847 158.2025
  A 10.95 10.95 0.0 0 0 372.2728 169.1142
  L 374.7128 169.1057
  A 10.95 10.95 0.0 0 0 385.6245 158.1175
  L 385.6153 155.4775
  Z"
/>
<path fill="#f7883d" d="
  M 521.52 178.98
  Q 520.50 178.04 520.50 179.43
  L 520.44 203.94
  A 0.51 0.49 -90.0 0 1 519.95 204.45
  L 505.25 204.51
  A 0.53 0.50 88.9 0 1 504.74 203.99
  Q 503.92 169.54 504.75 152.50
  Q 504.97 147.93 507.64 143.26
  Q 510.06 139.02 513.79 136.07
  Q 521.29 130.13 532.00 130.00
  Q 539.81 129.90 545.57 132.43
  Q 553.44 135.88 557.33 142.71
  Q 560.83 148.86 560.92 157.14
  Q 561.06 171.59 548.19 179.94
  Q 543.18 183.18 535.49 183.65
  Q 527.10 184.15 521.52 178.98
  Z
  M 544.8902 155.4151
  A 10.92 10.92 0.0 0 0 533.8942 144.5716
  L 531.3943 144.5890
  A 10.92 10.92 0.0 0 0 520.5508 155.5850
  L 520.5698 158.3049
  A 10.92 10.92 0.0 0 0 531.5658 169.1484
  L 534.0657 169.1310
  A 10.92 10.92 0.0 0 0 544.9092 158.1350
  L 544.8902 155.4151
  Z"
/>
<path fill="#fbaa40" d="
  M 672.80 178.87
  Q 667.86 182.67 661.98 183.56
  Q 656.57 184.37 650.75 182.10
  Q 635.97 176.31 634.75 159.00
  Q 633.96 147.83 634.79 130.82
  A 0.54 0.52 -88.9 0 1 635.31 130.30
  L 649.70 130.30
  A 1.08 1.07 -88.5 0 1 650.77 131.44
  Q 650.06 144.80 650.78 157.91
  Q 651.04 162.66 652.41 164.79
  Q 653.85 167.03 656.35 168.19
  Q 658.42 169.15 661.29 169.05
  Q 672.95 168.65 672.98 155.75
  Q 673.00 143.50 673.00 131.17
  A 0.92 0.92 -89.9 0 1 673.92 130.25
  L 688.01 130.25
  A 0.99 0.99 45.0 0 1 689.00 131.24
  Q 689.00 156.00 689.00 180.75
  Q 689.00 189.48 684.35 196.20
  Q 680.29 202.07 673.62 204.97
  Q 667.20 207.76 659.50 207.50
  Q 651.17 207.22 644.66 205.44
  A 0.66 0.65 7.1 0 1 644.17 204.82
  L 643.94 189.93
  A 0.35 0.34 9.6 0 1 644.41 189.61
  Q 653.13 192.75 661.25 192.25
  Q 673.39 191.51 673.20 179.06
  Q 673.19 178.56 672.80 178.87
  Z"
/>
</svg>
