<?xml version="1.0" encoding="UTF-8" standalone="no"?>
<!DOCTYPE svg PUBLIC "-//W3C//DTD SVG 1.1//EN" "http://www.w3.org/Graphics/SVG/1.1/DTD/svg11.dtd">
<svg xmlns="http://www.w3.org/2000/svg" version="1.1" viewBox="0 0 645 387">
<path fill="#db6341" fill-opacity="0.996" d="
  M 82.98 179.55
  Q 81.70 187.04 82.90 194.34
  A 0.44 0.43 85.9 0 0 83.31 194.71
  Q 90.62 194.97 93.93 199.55
  Q 96.40 202.97 95.79 207.38
  Q 95.22 211.46 92.11 214.65
  A 0.62 0.60 -39.4 0 0 92.02 215.42
  Q 95.68 221.02 101.59 225.09
  A 1.27 1.26 -50.3 0 0 103.21 224.93
  Q 108.50 219.52 114.54 221.05
  Q 118.63 222.08 120.87 225.46
  Q 123.17 228.94 122.52 233.63
  A 0.91 0.91 -82.6 0 0 123.31 234.66
  Q 126.19 235.03 128.59 235.24
  Q 129.69 235.34 130.13 235.76
  Q 130.67 236.28 130.63 237.07
  A 0.65 0.58 -3.0 0 1 130.07 237.63
  Q 124.89 238.32 120.32 236.70
  A 1.34 1.34 -70.9 0 1 119.50 235.01
  Q 120.89 230.82 119.12 227.53
  Q 117.46 224.47 113.67 223.56
  Q 107.40 222.05 103.93 228.95
  A 1.04 1.03 -60.2 0 1 102.44 229.36
  Q 93.99 223.90 88.38 215.22
  A 1.45 1.44 57.9 0 1 88.84 213.20
  Q 92.37 211.05 93.24 207.58
  Q 94.10 204.20 92.09 201.22
  Q 89.19 196.90 82.55 197.54
  A 1.73 1.73 81.4 0 1 80.68 196.16
  Q 78.69 186.35 80.90 176.67
  A 1.04 1.04 -75.1 0 1 82.21 175.91
  Q 86.60 177.25 89.91 175.46
  Q 93.26 173.65 94.09 169.87
  Q 95.26 164.58 89.12 160.10
  A 1.56 1.56 34.2 0 1 88.72 158.01
  Q 93.57 150.23 102.47 144.46
  A 1.29 1.29 -31.6 0 1 104.28 144.89
  Q 105.59 147.13 107.95 148.60
  Q 110.12 149.95 112.81 149.62
  Q 121.99 148.51 119.98 137.91
  A 0.71 0.65 81.2 0 1 120.53 137.08
  L 129.49 136.00
  A 0.89 0.87 69.7 0 1 130.32 136.39
  Q 130.86 137.20 130.49 138.06
  A 0.97 0.79 4.8 0 1 129.75 138.57
  L 123.76 139.23
  A 0.86 0.85 -5.7 0 0 122.99 140.16
  Q 123.52 145.43 120.58 148.75
  Q 117.78 151.93 113.30 152.43
  Q 107.91 153.03 103.70 148.31
  A 1.23 1.22 -39.0 0 0 102.06 148.14
  Q 96.07 152.46 92.17 158.00
  A 0.91 0.91 38.4 0 0 92.31 159.20
  Q 100.40 166.45 95.11 174.09
  Q 93.09 177.00 89.89 178.16
  Q 86.90 179.24 83.57 179.09
  A 0.58 0.55 5.7 0 0 82.98 179.55
  Z"
/>
<path fill="#f19949" fill-opacity="0.996" d="
  M 150.80 140.06
  Q 160.78 137.45 165.16 147.70
  A 1.37 1.37 -16.9 0 0 166.68 148.51
  Q 169.87 147.91 172.75 148.83
  Q 175.49 149.70 177.63 152.05
  Q 182.67 157.54 180.15 166.12
  A 2.56 2.56 36.1 0 0 180.49 168.28
  Q 189.90 181.99 179.10 193.63
  A 0.91 0.90 -31.5 0 0 178.89 194.48
  Q 182.16 205.84 171.26 211.15
  A 1.46 1.46 70.9 0 0 170.47 212.78
  Q 172.00 219.57 168.91 224.62
  Q 166.51 228.54 162.44 229.99
  Q 158.11 231.54 153.38 229.56
  A 0.80 0.79 -69.8 0 0 152.31 230.06
  Q 151.20 233.68 148.54 235.78
  Q 145.86 237.91 142.40 237.71
  Q 138.82 237.51 136.47 234.85
  Q 134.68 232.82 133.99 229.21
  Q 132.47 221.15 136.10 213.49
  A 1.22 1.20 43.7 0 0 136.07 212.40
  Q 134.80 209.99 134.13 207.84
  Q 133.57 206.01 133.54 202.97
  Q 133.38 184.96 133.50 181.50
  Q 133.67 176.55 136.60 172.51
  A 0.98 0.98 -43.5 0 0 136.63 171.41
  Q 133.13 166.08 133.35 160.25
  Q 133.48 156.78 133.48 156.73
  Q 133.45 152.42 133.47 148.11
  Q 133.50 143.24 134.61 141.09
  Q 136.44 137.55 140.69 136.44
  Q 146.52 134.90 150.03 139.78
  A 0.73 0.73 -25.0 0 0 150.80 140.06
  Z
  M 145.08 180.51
  L 143.73 176.05
  A 1.38 0.56 81.4 0 0 143.27 175.27
  Q 141.42 174.06 139.23 174.41
  A 1.30 1.27 -73.8 0 0 138.42 174.87
  Q 136.50 177.19 136.50 180.75
  Q 136.50 192.75 136.55 204.75
  Q 136.56 207.63 137.76 210.26
  A 0.94 0.94 62.1 0 0 139.11 210.68
  Q 146.19 206.36 152.54 211.67
  A 0.52 0.52 34.8 0 0 153.33 211.53
  Q 157.19 205.03 153.05 198.86
  A 0.81 0.81 -42.8 0 0 151.74 198.81
  Q 148.92 202.38 144.90 202.50
  Q 144.16 202.53 143.70 202.15
  Q 142.91 201.51 143.49 200.69
  A 1.53 0.93 -0.2 0 1 144.30 200.19
  Q 152.80 197.90 151.45 188.97
  Q 151.29 187.94 151.36 187.40
  Q 151.59 185.55 153.01 186.51
  Q 153.69 186.96 153.96 187.89
  Q 155.04 191.56 153.91 195.27
  A 0.85 0.82 -58.9 0 0 154.10 196.10
  Q 156.67 198.74 157.91 202.22
  A 0.78 0.78 83.9 0 0 158.55 202.74
  Q 164.99 203.46 169.18 208.37
  A 0.75 0.74 60.0 0 0 169.98 208.59
  Q 177.83 205.87 176.47 196.53
  A 1.14 1.14 72.8 0 0 174.84 195.67
  Q 172.24 196.94 169.17 196.74
  Q 169.12 196.74 167.98 196.50
  Q 166.52 196.19 165.51 197.71
  Q 164.84 198.71 163.82 199.36
  Q 161.42 200.91 161.73 198.31
  A 1.71 1.23 -26.9 0 1 162.17 197.46
  Q 164.70 194.78 163.00 190.75
  Q 161.87 188.08 164.32 188.57
  A 1.55 1.50 74.1 0 1 165.15 189.05
  Q 166.39 190.50 166.68 192.12
  Q 167.05 194.16 169.12 194.01
  Q 175.83 193.53 179.23 189.00
  Q 182.37 184.83 182.09 179.10
  Q 181.82 173.54 177.57 169.76
  Q 174.71 167.21 171.73 167.16
  Q 167.81 167.09 165.72 171.29
  A 0.83 0.78 40.1 0 0 165.82 172.14
  Q 167.75 174.62 168.35 177.70
  A 1.54 1.41 54.8 0 1 168.23 178.65
  Q 167.36 180.43 166.28 179.24
  Q 165.85 178.76 165.60 177.60
  Q 164.74 173.49 160.70 172.85
  Q 160.20 172.77 158.80 172.90
  Q 156.22 173.14 157.72 170.68
  A 1.09 0.64 5.8 0 1 158.50 170.32
  L 162.70 170.07
  A 1.20 0.71 -67.4 0 0 163.45 169.51
  Q 167.96 162.28 176.45 165.41
  A 0.83 0.83 17.7 0 0 177.54 164.85
  Q 180.63 153.87 170.00 150.75
  Q 167.79 150.10 165.88 152.19
  A 1.93 1.31 80.5 0 0 165.48 153.06
  Q 164.44 158.55 158.87 161.93
  A 2.36 2.35 -15.8 0 0 157.74 163.94
  Q 157.76 167.45 155.83 168.82
  Q 155.16 169.29 154.46 169.12
  Q 153.24 168.84 154.07 167.29
  Q 156.78 162.21 151.82 158.20
  A 1.46 1.45 46.1 0 1 151.86 155.90
  Q 152.85 155.17 154.24 156.51
  Q 155.24 157.49 156.23 158.61
  Q 157.49 160.04 158.88 158.74
  Q 166.52 151.62 160.43 144.60
  Q 158.83 142.74 156.94 142.28
  Q 154.74 141.75 152.52 142.62
  A 0.72 0.64 78.7 0 0 152.11 143.31
  L 152.24 146.00
  A 1.06 1.04 -22.5 0 1 151.88 146.85
  Q 149.90 148.57 149.50 145.25
  Q 148.79 139.46 143.89 138.92
  Q 140.76 138.57 138.59 140.57
  Q 136.25 142.70 136.25 146.25
  Q 136.25 154.38 136.28 162.50
  Q 136.30 169.36 142.36 172.21
  Q 144.14 173.05 145.06 171.31
  Q 146.39 168.80 149.02 167.90
  A 0.96 0.84 -32.2 0 1 149.91 168.04
  Q 150.71 168.73 150.39 169.72
  A 1.58 0.97 -17.8 0 1 149.76 170.45
  Q 144.91 173.58 147.32 178.83
  Q 147.75 179.77 147.61 180.38
  Q 147.30 181.67 145.78 181.13
  A 1.15 0.76 8.0 0 1 145.08 180.51
  Z
  M 154.93 222.28
  A 1.57 1.57 -82.9 0 1 153.75 220.76
  Q 153.76 217.45 151.98 215.07
  Q 150.24 212.75 147.29 211.96
  Q 144.38 211.17 141.64 212.39
  Q 139.04 213.55 137.80 216.08
  Q 136.63 218.48 136.50 221.75
  Q 136.32 226.49 136.69 229.06
  Q 137.27 233.13 140.34 234.54
  Q 143.20 235.86 146.10 234.33
  Q 149.13 232.74 149.61 228.88
  Q 149.73 227.85 149.22 226.84
  Q 148.74 225.90 148.17 225.00
  Q 147.75 224.32 147.82 223.76
  Q 147.97 222.57 149.21 222.98
  Q 149.80 223.18 150.41 223.95
  Q 153.19 227.46 157.28 227.89
  Q 160.78 228.26 163.86 226.23
  Q 167.17 224.03 168.00 220.25
  Q 170.38 209.33 160.23 205.74
  Q 158.07 204.98 157.75 207.25
  Q 157.29 210.50 155.59 212.70
  A 2.70 2.70 -37.1 0 0 155.22 215.35
  Q 156.25 217.89 156.63 219.96
  Q 156.80 220.91 156.53 221.52
  Q 156.07 222.57 154.93 222.28
  Z"
/>
<path fill="#f14f3a" d="
  M 247.02 176.06
  Q 248.01 175.39 249.80 175.00
  Q 251.26 174.68 252.72 174.90
  Q 257.29 175.57 260.27 178.78
  Q 262.25 180.92 262.87 184.80
  Q 264.02 191.93 263.48 199.18
  A 0.77 0.74 83.9 0 1 262.96 199.85
  Q 259.82 200.83 256.55 199.93
  A 0.75 0.73 7.8 0 1 256.00 199.22
  Q 256.00 193.50 255.89 187.75
  Q 255.75 180.72 249.70 181.88
  Q 247.90 182.23 246.85 183.50
  Q 245.62 184.99 245.50 186.75
  Q 245.11 192.74 245.26 199.33
  A 0.85 0.81 89.0 0 1 244.46 200.20
  L 239.55 200.23
  A 1.55 1.53 -90.0 0 1 238.01 198.67
  L 238.24 166.00
  A 0.69 0.69 -8.6 0 1 238.73 165.34
  Q 241.65 164.46 244.59 165.29
  A 0.72 0.69 8.2 0 1 245.10 165.94
  L 245.22 175.07
  Q 245.25 177.26 247.02 176.06
  Z"
/>
<path fill="#de7645" fill-opacity="0.996" d="
  M 129.63 206.57
  Q 131.46 208.91 127.53 208.10
  Q 115.46 205.59 111.19 196.06
  Q 107.18 187.10 111.06 177.92
  Q 115.38 167.73 128.21 165.39
  Q 129.17 165.21 129.75 165.50
  Q 130.82 166.04 129.89 167.19
  A 1.65 1.19 4.4 0 1 129.07 167.69
  Q 124.20 168.99 123.06 169.56
  Q 113.17 174.54 112.00 184.17
  Q 111.05 191.95 115.40 198.13
  Q 119.94 204.58 128.83 206.11
  A 1.37 1.19 -11.0 0 1 129.63 206.57
  Z"
/>
<path fill="#fbab43" d="
  M 513.56 175.75
  L 519.19 176.28
  A 0.68 0.58 0.4 0 1 519.80 176.81
  L 520.25 181.70
  A 1.29 1.18 -2.6 0 1 518.96 183.00
  L 513.74 183.00
  A 0.65 0.65 4.7 0 0 513.10 183.54
  Q 512.64 186.51 513.34 189.14
  Q 513.93 191.37 515.40 192.38
  Q 517.09 193.54 519.49 193.20
  Q 521.82 192.86 521.56 195.21
  Q 521.39 196.81 521.57 198.40
  Q 521.87 201.04 518.98 200.72
  Q 507.14 199.44 505.66 189.30
  Q 505.50 188.22 505.50 179.69
  Q 505.50 175.02 505.50 170.05
  A 0.92 0.92 -3.5 0 1 506.31 169.14
  Q 509.84 168.72 512.27 169.36
  A 0.71 0.70 6.1 0 1 512.80 170.01
  L 513.07 175.20
  A 0.58 0.53 -89.0 0 0 513.56 175.75
  Z"
/>
<path fill="#ee4738" d="
  M 217.06 193.19
  Q 219.67 193.53 224.79 193.09
  Q 226.06 192.98 226.53 192.45
  Q 227.11 191.79 226.69 190.83
  Q 226.41 190.21 225.62 189.88
  Q 223.12 188.84 217.31 187.19
  Q 211.43 185.52 210.40 180.15
  Q 209.60 175.96 212.21 172.88
  Q 214.89 169.71 219.73 169.30
  Q 225.04 168.85 231.61 170.30
  A 1.37 1.30 5.9 0 1 232.69 171.56
  L 232.75 175.39
  Q 232.79 177.52 230.65 177.03
  Q 224.89 175.73 219.23 176.59
  Q 217.96 176.78 217.45 177.36
  Q 216.74 178.17 217.31 179.27
  A 1.57 1.16 4.7 0 0 218.02 179.89
  Q 221.69 181.50 226.25 182.50
  Q 228.65 183.03 230.65 184.48
  Q 232.59 185.90 233.46 188.21
  Q 235.20 192.83 232.27 196.15
  Q 230.23 198.46 225.94 199.53
  Q 218.66 201.35 211.17 199.44
  A 1.06 1.03 -3.8 0 1 210.47 198.85
  Q 209.48 196.49 210.25 193.70
  A 0.90 0.89 5.9 0 1 211.06 193.05
  Q 214.54 192.86 217.06 193.19
  Z"
/>
<path fill="#f4763d" d="
  M 362.55 190.31
  L 362.51 199.04
  A 1.00 0.98 84.6 0 1 361.73 200.00
  Q 358.77 200.62 355.80 200.04
  A 0.62 0.61 5.8 0 1 355.30 199.44
  L 355.02 170.73
  A 1.24 1.21 -0.5 0 1 356.26 169.50
  Q 360.25 169.50 363.74 169.30
  Q 367.33 169.10 370.81 169.70
  Q 374.87 170.40 377.07 172.60
  Q 379.19 174.71 379.90 177.69
  Q 380.55 180.45 379.35 183.18
  Q 376.37 189.97 368.00 189.25
  Q 365.12 189.00 363.04 189.65
  A 0.69 0.69 -8.6 0 0 362.55 190.31
  Z
  M 372.62 179.39
  Q 372.76 177.41 370.81 176.69
  Q 368.20 175.72 363.43 176.37
  A 0.92 0.85 6.4 0 0 362.72 176.89
  Q 362.42 177.65 362.41 178.47
  Q 362.38 179.87 362.32 180.52
  Q 362.07 183.02 364.40 182.95
  Q 366.55 182.89 367.09 182.91
  Q 369.40 183.01 371.19 181.77
  Q 372.52 180.85 372.62 179.39
  Z"
/>
<path fill="#f3683c" d="
  M 324.61 191.84
  Q 329.20 194.12 335.00 192.75
  Q 337.83 192.08 337.89 194.41
  Q 337.93 196.08 337.87 197.09
  Q 337.80 198.16 337.14 198.99
  Q 336.60 199.68 335.46 199.85
  Q 331.64 200.44 327.75 200.19
  Q 322.24 199.83 318.89 196.28
  Q 316.09 193.31 315.50 188.99
  Q 314.87 184.41 317.40 180.69
  Q 320.10 176.71 324.77 175.38
  Q 329.43 174.05 334.42 176.10
  Q 336.21 176.83 337.52 178.15
  Q 338.78 179.41 339.27 181.30
  Q 340.74 187.05 335.00 189.75
  Q 330.12 192.05 324.79 190.46
  A 0.63 0.48 16.8 0 0 324.05 190.74
  Q 323.95 191.07 324.13 191.41
  Q 324.26 191.67 324.61 191.84
  Z
  M 330.12 182.03
  Q 327.26 181.71 324.74 183.26
  Q 323.05 184.29 324.94 184.88
  Q 327.32 185.64 330.29 185.20
  Q 331.19 185.06 331.66 184.55
  Q 332.47 183.67 331.78 182.82
  Q 331.25 182.16 330.12 182.03
  Z"
/>
<path fill="#f4763d" d="
  M 386.06 180.28
  Q 389.78 175.11 397.61 174.98
  A 1.77 1.46 -0.7 0 1 399.41 176.42
  L 399.45 181.01
  A 1.10 1.02 1.1 0 1 398.31 182.03
  Q 394.48 181.89 392.60 183.89
  Q 391.25 185.32 391.08 189.00
  Q 390.87 193.76 391.10 199.04
  A 1.16 1.16 88.8 0 1 389.94 200.25
  L 384.73 200.25
  A 0.98 0.98 0.1 0 1 383.75 199.27
  Q 383.75 192.75 383.75 187.50
  Q 383.75 183.49 386.06 180.28
  Z"
/>
<path fill="#f89241" d="
  M 444.19 182.04
  Q 441.14 180.91 439.03 183.84
  A 1.57 1.48 -28.3 0 0 438.73 184.74
  L 438.72 198.58
  A 1.61 1.41 89.5 0 1 437.34 200.19
  L 431.89 200.28
  A 0.94 0.86 88.7 0 1 431.02 199.37
  Q 430.88 192.90 431.09 187.09
  Q 431.25 182.44 432.63 180.19
  Q 434.60 176.97 438.57 175.60
  Q 445.05 173.37 450.65 178.74
  A 0.77 0.77 -47.4 0 0 451.78 178.69
  Q 455.44 174.39 460.31 174.94
  Q 466.33 175.63 469.08 180.00
  Q 470.74 182.62 470.92 188.35
  Q 471.10 193.83 471.07 199.32
  A 0.70 0.67 82.6 0 1 470.59 199.97
  Q 469.28 200.37 467.90 200.35
  Q 467.69 200.34 465.59 200.40
  Q 463.09 200.47 463.38 197.73
  Q 463.53 196.35 463.53 196.26
  Q 463.80 190.03 463.11 184.64
  Q 462.81 182.28 460.45 182.05
  Q 455.00 181.49 454.89 186.50
  Q 454.75 192.62 454.75 199.38
  A 0.87 0.87 45.0 0 1 453.88 200.25
  L 448.15 200.25
  A 0.92 0.91 0.9 0 1 447.23 199.31
  Q 447.39 193.09 447.06 187.69
  Q 446.94 185.65 446.47 184.30
  Q 445.90 182.68 444.19 182.04
  Z"
/>
<path fill="#f99d41" d="
  M 478.44 179.69
  Q 481.60 175.62 487.00 174.97
  Q 493.08 174.24 497.29 177.43
  Q 501.12 180.33 501.95 185.88
  Q 503.48 196.03 493.04 199.78
  Q 490.72 200.61 488.75 200.29
  Q 486.58 199.93 484.55 198.73
  Q 483.25 197.96 483.25 199.47
  L 483.25 208.98
  A 1.27 1.27 -90.0 0 1 481.98 210.25
  L 476.75 210.25
  A 1.00 1.00 89.7 0 1 475.75 209.26
  Q 475.66 200.29 475.94 191.33
  Q 475.94 191.25 475.83 187.69
  Q 475.69 183.23 478.44 179.69
  Z
  M 494.89 187.52
  A 5.93 5.93 0.0 0 0 488.96 181.59
  A 5.93 5.93 0.0 0 0 483.03 187.52
  A 5.93 5.93 0.0 0 0 488.96 193.45
  A 5.93 5.93 0.0 0 0 494.89 187.52
  Z"
/>
<path fill="#fbab43" d="
  M 538.71 191.92
  Q 535.84 191.06 532.91 190.38
  Q 528.72 189.40 527.33 188.43
  Q 524.13 186.18 524.68 181.95
  Q 525.01 179.37 526.92 177.61
  Q 528.96 175.72 531.50 175.25
  Q 536.89 174.26 543.73 175.84
  A 1.91 1.57 -87.9 0 1 544.97 177.47
  L 545.29 181.01
  A 1.41 1.33 -88.1 0 1 543.75 182.54
  Q 539.04 181.72 534.50 181.82
  Q 529.92 181.91 532.65 183.37
  Q 533.23 183.68 534.04 183.80
  Q 539.95 184.69 541.19 185.31
  Q 550.90 190.23 543.19 198.19
  Q 541.72 199.70 537.49 200.20
  Q 531.66 200.90 525.31 199.41
  A 1.10 0.95 6.5 0 1 524.46 198.49
  L 524.24 193.11
  A 0.57 0.53 4.1 0 1 524.90 192.58
  Q 531.88 193.72 538.24 193.17
  Q 539.00 193.11 539.16 192.56
  A 0.61 0.49 16.0 0 0 538.71 191.92
  Z"
/>
<path fill="#f05a3b" d="
  M 285.92 197.14
  Q 282.58 201.00 276.96 199.92
  Q 270.90 198.77 268.30 193.23
  Q 264.65 185.46 269.56 179.56
  Q 273.98 174.26 282.00 175.00
  Q 288.87 175.64 291.69 181.39
  Q 292.72 183.50 293.25 189.32
  Q 293.68 194.12 294.78 198.90
  A 1.07 1.07 -8.7 0 1 293.81 200.21
  Q 292.72 200.30 291.28 200.47
  Q 288.04 200.86 286.74 197.29
  A 0.48 0.48 -34.6 0 0 285.92 197.14
  Z
  M 285.98 187.52
  A 5.92 5.92 0.0 0 0 280.06 181.60
  A 5.92 5.92 0.0 0 0 274.14 187.52
  A 5.92 5.92 0.0 0 0 280.06 193.44
  A 5.92 5.92 0.0 0 0 285.98 187.52
  Z"
/>
<path fill="#f3683c" d="
  M 300.93 180.18
  Q 305.53 174.21 313.07 175.12
  A 0.82 0.81 83.5 0 1 313.74 175.66
  Q 314.66 178.29 314.16 181.08
  A 0.74 0.71 -0.2 0 1 313.57 181.65
  Q 311.97 181.94 310.39 182.25
  Q 308.41 182.64 307.48 183.49
  Q 305.77 185.06 305.77 187.75
  Q 305.75 193.63 305.75 199.52
  A 0.67 0.65 89.6 0 1 305.11 200.19
  L 299.99 200.26
  A 1.76 1.71 88.8 0 1 298.26 198.55
  Q 298.09 191.77 298.56 185.56
  Q 298.76 183.00 300.93 180.18
  Z"
/>
<path fill="#f7863f" d="
  M 427.2975 188.5112
  A 13.35 12.76 4.0 0 1 413.0899 200.3089
  A 13.35 12.76 4.0 0 1 400.6625 186.6488
  A 13.35 12.76 4.0 0 1 414.8701 174.8511
  A 13.35 12.76 4.0 0 1 427.2975 188.5112
  Z
  M 419.89 187.51
  A 5.90 5.90 0.0 0 0 413.99 181.61
  A 5.90 5.90 0.0 0 0 408.09 187.51
  A 5.90 5.90 0.0 0 0 413.99 193.41
  A 5.90 5.90 0.0 0 0 419.89 187.51
  Z"
/>
</svg>
